<svg width="20" height="20" viewBox="0 0 20 20" xmlns="http://www.w3.org/2000/svg"><g fill="none" fill-rule="evenodd"><polygon fill="#000000" points="7.5 13.3038184 7.5 14.8038184 12.5 14.8038184 12.5 13.3038184 10.75 13.3038184 10.75 8.30381839 8 8.30381839 8 9.80381839 9.25 9.80381839 9.25 13.3038184"/><path d="M10,0 C15.5228475,0 20,4.4771525 20,10 C20,15.5228475 15.5228475,20 10,20 C4.4771525,20 0,15.5228475 0,10 C0,4.4771525 4.4771525,0 10,0 Z M10,2 C5.581722,2 2,5.581722 2,10 C2,14.418278 5.581722,18 10,18 C14.418278,18 18,14.418278 18,10 C18,5.581722 14.418278,2 10,2 Z" fill="#000000" fill-rule="nonzero"/><circle fill="#000000" cx="10" cy="5.692" r="1.209"/></g></svg>