<svg width="45" height="45" viewBox="0 0 45 45" xmlns="http://www.w3.org/2000/svg"><path d="M32,15 C33.1045695,15 34,15.8954305 34,17 L34,28 C34,29.1045695 33.1045695,30 32,30 L13,30 C11.8954305,30 11,29.1045695 11,28 L11,17 C11,15.8954305 11.8954305,15 13,15 L32,15 Z M32,16 L13,16 C12.4477153,16 12,16.4477153 12,17 L12,28 C12,28.5522847 12.4477153,29 13,29 L32,29 C32.5522847,29 33,28.5522847 33,28 L33,17 C33,16.4477153 32.5522847,16 32,16 Z M23,25 C23.5522847,25 24,25.4477153 24,26 L24,27 C24,27.5522847 23.5522847,28 23,28 L14,28 C13.4477153,28 13,27.5522847 13,27 L13,26 C13,25.4477153 13.4477153,25 14,25 L23,25 Z M31,17 C31.5522847,17 32,17.4477153 32,18 L32,23 C32,23.5522847 31.5522847,24 31,24 L14,24 C13.4477153,24 13,23.5522847 13,23 L13,18 C13,17.4477153 13.4477153,17 14,17 L31,17 Z" fill="#000000" fill-rule="evenodd"/></svg>