<svg width="45" height="45" viewBox="0 0 45 45" xmlns="http://www.w3.org/2000/svg"><path d="M32,15 C33.1045695,15 34,15.8954305 34,17 L34,28 C34,29.1045695 33.1045695,30 32,30 L13,30 C11.8954305,30 11,29.1045695 11,28 L11,17 C11,15.8954305 11.8954305,15 13,15 L32,15 Z M32,16 L13,16 C12.4477153,16 12,16.4477153 12,17 L12,28 C12,28.5522847 12.4477153,29 13,29 L32,29 C32.5522847,29 33,28.5522847 33,28 L33,17 C33,16.4477153 32.5522847,16 32,16 Z M26,22 C27.8346354,21.3884549 29.6692708,21.6183815 31.5040033,22.6896136 C31.8106661,22.8685631 31.9994458,23.1967019 32,23.5517578 L32,27 C32,27.5522847 31.5522847,28 31,28 L14,28 C13.4477153,28 13,27.5522847 13,27 L13,25.9687057 L13.0105961,25.8251331 C13.0818756,25.3451379 13.503213,24.9842004 14,25 L14.4403514,25.0105801 C20.8078896,25.11322 23.2067448,22.9310851 26,22 Z M16.75,18.5 C17.7164983,18.5 18.5,19.2835017 18.5,20.25 C18.5,21.2164983 17.7164983,22 16.75,22 C15.7835017,22 15,21.2164983 15,20.25 C15,19.2835017 15.7835017,18.5 16.75,18.5 Z" fill="#000000"/></svg>