<svg width="45" height="45" viewBox="0 0 45 45" xmlns="http://www.w3.org/2000/svg"><path d="M31.0395445,14.6621019 C31.0865261,14.8343676 31.0865261,15.0160709 31.0395445,15.1883367 L29.2261258,21.8375386 C29.0808101,22.3703629 28.531069,22.6845007 27.9982446,22.539185 C27.8303497,22.4933955 27.6773109,22.4045836 27.5542552,22.281528 L25.844,20.5709684 L15.7071068,30.7071068 C15.3165825,31.0976311 14.6834175,31.0976311 14.2928932,30.7071068 C13.9023689,30.3165825 13.9023689,29.6834175 14.2928932,29.2928932 L24.429,19.1559684 L22.718472,17.4457448 C22.3279477,17.0552205 22.3279477,16.4220555 22.718472,16.0315312 C22.8415277,15.9084756 22.9945665,15.8196637 23.1624614,15.7738742 L29.8116633,13.9604555 C30.3444877,13.8151397 30.8942288,14.1292775 31.0395445,14.6621019 Z" fill="#000000" fill-rule="evenodd"/></svg>