<svg width="45" height="45" viewBox="0 0 45 45" xmlns="http://www.w3.org/2000/svg"><path d="M32,15 C33.1045695,15 34,15.8954305 34,17 L34,28 C34,29.1045695 33.1045695,30 32,30 L13,30 C11.8954305,30 11,29.1045695 11,28 L11,17 C11,15.8954305 11.8954305,15 13,15 L32,15 Z M32,16 L13,16 C12.4477153,16 12,16.4477153 12,17 L12,28 C12,28.5522847 12.4477153,29 13,29 L32,29 C32.5522847,29 33,28.5522847 33,28 L33,17 C33,16.4477153 32.5522847,16 32,16 Z M20.1483417,19.765467 C20.4377927,19.2951091 21.0537395,19.1484551 21.5240974,19.4379061 L25.1160552,21.6483417 C25.2493757,21.730385 25.3615728,21.8425821 25.4436161,21.9759026 C25.7330671,22.4462605 25.5864131,23.0622073 25.1160552,23.3516583 L21.5240974,25.5620939 C21.3664897,25.6590832 21.1850598,25.7104356 21,25.7104356 C20.4477153,25.7104356 20,25.2627203 20,24.7104356 L20,20.2895644 C20,20.1045046 20.0513523,19.9230747 20.1483417,19.765467 Z" fill="#000000"/></svg>