<svg width="20" height="20" viewBox="0 0 20 20" xmlns="http://www.w3.org/2000/svg"><path d="M10,0.5 L17.4071218,6.59998262 C18.0991136,7.16985822 18.5,8.01932989 18.5,8.91577333 L18.5,16.5 C18.5,18.1568542 17.1568542,19.5 15.5,19.5 L4.5,19.5 C2.84314575,19.5 1.5,18.1568542 1.5,16.5 L1.5,8.91577333 C1.5,8.01932989 1.90088645,7.16985822 2.59287824,6.59998262 L10,0.5 Z M10,3.09 L3.86429275,8.1438431 C3.63362882,8.33380163 3.5,8.61695885 3.5,8.91577333 L3.5,16.5 C3.5,17.0522847 3.94771525,17.5 4.5,17.5 L15.5,17.5 C16.0522847,17.5 16.5,17.0522847 16.5,16.5 L16.5,8.91577333 C16.5,8.61695885 16.3663712,8.33380163 16.1357073,8.1438431 L10,3.09 Z" fill="#000000" transform="rotate(-90 10 10)"/></svg>