<svg xmlns="http://www.w3.org/2000/svg" width="25" height="25" viewBox="0 0 25 25"><path fill="#FFF" fill-rule="evenodd" d="M14,5 L14.0001762,7.20708232 C14.8898846,7.45875636 15.6879378,7.92871523 16.3328227,8.55544562 L18.2451905,7.45096189 L19.7451905,10.0490381 L17.8338901,11.1531447 C17.9423781,11.5841343 18,12.035338 18,12.5 C18,12.964662 17.9423781,13.4158657 17.8338901,13.8468553 L19.7451905,14.9509619 L18.2451905,17.5490381 L16.3328227,16.4445544 C15.6879378,17.0712848 14.8898846,17.5412436 14.0001762,17.7929177 L14,20 L11,20 L10.9998437,17.7929233 C10.1105926,17.5413823 9.31290172,17.0717809 8.66818924,16.4455376 L6.75480947,17.5490381 L5.25480947,14.9509619 L7.16610987,13.8468553 C7.05762188,13.4158657 7,12.964662 7,12.5 C7,12.035338 7.05762188,11.5841343 7.16610987,11.1531447 L5.25480947,10.0490381 L6.75480947,7.45096189 L8.66717732,8.55544562 C9.31206696,7.92871056 10.1101273,7.45874936 10.9998437,7.2070767 L11,5 L14,5 Z M12.5,10 C11.1192881,10 10,11.1192881 10,12.5 C10,13.8807119 11.1192881,15 12.5,15 C13.8807119,15 15,13.8807119 15,12.5 C15,11.1192881 13.8807119,10 12.5,10 Z"/></svg>