<svg xmlns="http://www.w3.org/2000/svg" width="25" height="25" viewBox="0 0 25 25"><path fill="#328173" d="M10,11 L10,11.5 C10,11.8905243 10.1094757,12 10.5,12 L14.5,12 C15.442809,12 16,12.557191 16,13.5 L16,14 L15,14 L15,13.5 C15,13.1094757 14.8905243,13 14.5,13 L10.5,13 C9.55719096,13 9,12.442809 9,11.5 L9,11 L10,11 Z M14,15 L17,15 C17.5522847,15 18,15.4477153 18,16 L18,17 C18,17.5522847 17.5522847,18 17,18 L14,18 C13.4477153,18 13,17.5522847 13,17 L13,16 C13,15.4477153 13.4477153,15 14,15 Z M8,7 L11,7 C11.5522847,7 12,7.44771525 12,8 L12,9 C12,9.55228475 11.5522847,10 11,10 L8,10 C7.44771525,10 7,9.55228475 7,9 L7,8 C7,7.44771525 7.44771525,7 8,7 Z"/></svg>