<svg width="45" height="45" viewBox="0 0 45 45" xmlns="http://www.w3.org/2000/svg"><path d="M18.612,17 L19.802852,28.1065331 C19.8531075,28.575585 20.2223565,28.9399922 20.6808197,28.9932794 L20.7971611,29 L26.2028389,29 C26.7138868,29 27.1427045,28.6146727 27.197148,28.1065331 L28.387,17 L29.393,17 L28.1914572,28.2130662 C28.0825701,29.2293454 27.2249346,30 26.2028389,30 L20.7971611,30 C19.7750654,30 18.9174299,29.2293454 18.8085428,28.2130662 L17.608,17 L18.612,17 Z M25.0931333,20.2093809 L25.9068667,20.7906191 L23.0638024,24.7709092 L21.1464466,22.8535534 L21.8535534,22.1464466 L22.936,23.229 L25.0931333,20.2093809 Z M20.3379115,11.5845597 L20.6302832,10.6282549 L25.0876196,11.9909994 L26.1389494,10.6841912 C26.4937281,10.2429578 27.0634827,10.0421404 27.6103803,10.1549027 L27.7464908,10.1896685 L30.2768102,10.9632648 C30.8633663,11.142593 31.2816494,11.6609639 31.3329888,12.2721684 L31.4728665,13.9431653 L35.9311593,15.3062022 L35.6387876,16.262507 L20.3379115,11.5845597 Z M29.9844384,11.9195696 L27.4541191,11.1459733 C27.2586004,11.0861972 27.0463865,11.1514799 26.918272,11.3108142 L26.1175599,12.3058838 L30.4429263,13.628281 L30.336498,12.3558708 C30.3218296,12.1812409 30.2172974,12.0293458 30.064605,11.9518678 L29.9844384,11.9195696 Z" fill="#000000"/></svg>