<svg width="35" height="35" viewBox="0 0 35 35" xmlns="http://www.w3.org/2000/svg"><path d="M14,16 L14,19 C14,19.5522847 14.4477153,20 15,20 L16.5857864,20 C16.8510029,20 17.1053568,20.1053568 17.2928932,20.2928932 L19.7071068,22.7071068 C19.8946432,22.8946432 20.1489971,23 20.4142136,23 L20.5,23 C20.7761424,23 21,22.7761424 21,22.5 L21,12.5 C21,12.2238576 20.7761424,12 20.5,12 L20.4142136,12 C20.1489971,12 19.8946432,12.1053568 19.7071068,12.2928932 L17.2928932,14.7071068 C17.1053568,14.8946432 16.8510029,15 16.5857864,15 L15,15 C14.4477153,15 14,15.4477153 14,16 Z" fill="#000000" fill-rule="evenodd"/></svg>