<svg width="35" height="35" viewBox="0 0 35 35" xmlns="http://www.w3.org/2000/svg"><g fill="none" fill-rule="evenodd"><path d="M20,22.121 L21,23.121 L21,24 L20,24 L20,22.121 Z M16,18.12 L17,19.121 L17,23 L16,23 L16,18.12 Z M14,16.12 L15,17.12 L15,22 L14,22 L14,16.12 Z M12,14.12 L13,15.12 L13,21 L12,21 L12,14.12 Z M18,20.121 L18.879,21 L18,21 L18,20.121 Z M23,13 L23,20.879 L22,19.879 L22,13 L23,13 Z M11,16 L11,19 L10,19 L10,16 L11,16 Z M25,16 L25,19 L24,19 L24,16 L25,16 Z M21,11 L21,18.879 L20,17.879 L20,11 L21,11 Z M19,14 L19,16.879 L18,15.88 L18,14 L19,14 Z M17,12 L17,14.88 L16,13.88 L16,12 L17,12 Z" fill="#000000" opacity=".5"/><polygon fill="#000000" fill-rule="nonzero" points="12.3535534 11.6464466 23.3535534 22.6464466 22.6464466 23.3535534 11.6464466 12.3535534"/></g></svg>