<svg width="35" height="35" viewBox="0 0 35 35" xmlns="http://www.w3.org/2000/svg"><g fill="#000000" transform="translate(9.3 11.78)" fill-rule="evenodd"><path d="M0,4.22054279 L0,7.22054279 C1.11022302e-16,7.77282754 0.44771525,8.22054279 1,8.22054279 L2.58578644,8.22054279 C2.85100293,8.22054279 3.10535684,8.32589963 3.29289322,8.51343601 L5.70710678,10.9276496 C5.89464316,11.1151859 6.14899707,11.2205428 6.41421356,11.2205428 L6.5,11.2205428 C6.77614237,11.2205428 7,10.9966852 7,10.7205428 L7,0.72054279 C7,0.444400415 6.77614237,0.22054279 6.5,0.22054279 L6.41421356,0.22054279 C6.14899707,0.22054279 5.89464316,0.32589963 5.70710678,0.513436009 L3.29289322,2.92764957 C3.10535684,3.11518595 2.85100293,3.22054279 2.58578644,3.22054279 L1,3.22054279 C0.44771525,3.22054279 0,3.66825804 0,4.22054279 Z"/><path d="M9.98610987,2.05296977 C10.2145527,1.89782957 10.5255082,1.95725309 10.6806484,2.18569593 C12.2690171,4.52455739 12.2690171,6.91652819 10.6806484,9.25538965 C10.5255082,9.48383249 10.2145527,9.54325601 9.98610987,9.38811581 C9.75766704,9.2329756 9.69824352,8.92202011 9.85338372,8.69357728 C11.2114386,6.69385117 11.2114386,4.74723441 9.85338372,2.7475083 C9.69824352,2.51906547 9.75766704,2.20810998 9.98610987,2.05296977 Z" fill-rule="nonzero"/><path d="M12.1810127,-0.381637976 C12.3917855,-0.560046002 12.7072789,-0.53380914 12.885687,-0.323036306 C16.2715937,3.67710416 16.2715937,7.76398142 12.885687,11.7641219 C12.7072789,11.9748947 12.3917855,12.0011316 12.1810127,11.8227236 C11.9702398,11.6443155 11.944003,11.3288221 12.122411,11.1180493 C15.1926857,7.49079935 15.1926857,3.95028623 12.122411,0.323036306 C11.944003,0.112263472 11.9702398,-0.203229951 12.1810127,-0.381637976 Z" fill-rule="nonzero"/></g></svg>