<svg width="43" height="35" viewBox="0 0 43 35" xmlns="http://www.w3.org/2000/svg"><g transform="translate(10 10)" fill="#000000" fill-rule="evenodd"><path d="M21,0 C22.1045695,0 23,0.8954305 23,2 L23,13 C23,14.1045695 22.1045695,15 21,15 L2,15 C0.8954305,15 0,14.1045695 0,13 L0,2 C0,0.8954305 0.8954305,0 2,0 L21,0 Z M21,1 L2,1 C1.44771525,1 1,1.44771525 1,2 L1,13 C1,13.5522847 1.44771525,14 2,14 L21,14 C21.5522847,14 22,13.5522847 22,13 L22,2 C22,1.44771525 21.5522847,1 21,1 Z" fill-rule="nonzero"/><rect y="1" width="23" height="7" rx="1"/></g></svg>