<svg width="45" height="45" viewBox="0 0 45 45" xmlns="http://www.w3.org/2000/svg"><path d="M24.822967,13.5 C25.4363239,13.5 25.987887,13.8734264 26.2156821,14.442914 L26.838,16 L31.5,16 L31.5,17 L29.393,17 L28.1914572,28.2130662 C28.0825701,29.2293454 27.2249346,30 26.2028389,30 L20.7971611,30 C19.7750654,30 18.9174299,29.2293454 18.8085428,28.2130662 L17.607,17 L15.5,17 L15.5,16 L20.161,16 L20.7843179,14.442914 C20.9945903,13.9172332 21.480736,13.5586103 22.0367052,13.5065481 L22.177033,13.5 L24.822967,13.5 Z M28.387,17 L18.612,17 L19.802852,28.1065331 C19.8531075,28.575585 20.2223565,28.9399922 20.6808197,28.9932794 L20.7971611,29 L26.2028389,29 C26.7138868,29 27.1427045,28.6146727 27.197148,28.1065331 L28.387,17 Z M24.6464466,21.1464466 L25.3535534,21.8535534 L24.207,23 L25.3535534,24.1464466 L24.6464466,24.8535534 L23.5,23.707 L22.3535534,24.8535534 L21.6464466,24.1464466 L22.793,23 L21.6464466,21.8535534 L22.3535534,21.1464466 L23.5,22.293 L24.6464466,21.1464466 Z M24.822967,14.5 L22.177033,14.5 C21.9725807,14.5 21.7887263,14.6244755 21.7127946,14.8143047 L21.238,16 L25.761,16 L25.2872054,14.8143047 C25.2221211,14.6515939 25.0777467,14.5368982 24.9090738,14.5074486 L24.822967,14.5 Z" fill="#000000"/></svg>