<svg width="45" height="45" viewBox="0 0 45 45" xmlns="http://www.w3.org/2000/svg"><g fill="none" fill-rule="evenodd"><path d="M18,14 C18.5522847,14 19,14.4477153 19,15 C19,15.5522847 18.5522847,16 18,16 L17,16 C16.4477153,16 16,16.4477153 16,17 L16,18 C16,18.5522847 15.5522847,19 15,19 C14.4477153,19 14,18.5522847 14,18 L14,17 C14,15.3431458 15.3431458,14 17,14 L18,14 Z M31,18 C31,18.5522847 30.5522847,19 30,19 C29.4477153,19 29,18.5522847 29,18 L29,17 C29,16.4477153 28.5522847,16 28,16 L27,16 C26.4477153,16 26,15.5522847 26,15 C26,14.4477153 26.4477153,14 27,14 L28,14 C29.6568542,14 31,15.3431458 31,17 L31,18 Z M27,31 C26.4477153,31 26,30.5522847 26,30 C26,29.4477153 26.4477153,29 27,29 L28,29 C28.5522847,29 29,28.5522847 29,28 L29,27 C29,26.4477153 29.4477153,26 30,26 C30.5522847,26 31,26.4477153 31,27 L31,28 C31,29.6568542 29.6568542,31 28,31 L27,31 Z M14,27 C14,26.4477153 14.4477153,26 15,26 C15.5522847,26 16,26.4477153 16,27 L16,28 C16,28.5522847 16.4477153,29 17,29 L18,29 C18.5522847,29 19,29.4477153 19,30 C19,30.5522847 18.5522847,31 18,31 L17,31 C15.3431458,31 14,29.6568542 14,28 L14,27 Z" fill="#000000" fill-rule="nonzero"/><path d="M23.2071068,15.2071068 L29.7928932,21.7928932 C30.1834175,22.1834175 30.1834175,22.8165825 29.7928932,23.2071068 L23.2071068,29.7928932 C22.8165825,30.1834175 22.1834175,30.1834175 21.7928932,29.7928932 L15.2071068,23.2071068 C14.8165825,22.8165825 14.8165825,22.1834175 15.2071068,21.7928932 L21.7928932,15.2071068 C22.1834175,14.8165825 22.8165825,14.8165825 23.2071068,15.2071068 Z" fill="#000000"/></g></svg>