<svg width="45" height="45" viewBox="0 0 45 45" xmlns="http://www.w3.org/2000/svg"><path d="M30.2071068,14.7928932 C30.5976311,15.1834175 30.5976311,15.8165825 30.2071068,16.2071068 L16.2071068,30.2071068 C15.8165825,30.5976311 15.1834175,30.5976311 14.7928932,30.2071068 C14.4023689,29.8165825 14.4023689,29.1834175 14.7928932,28.7928932 L28.7928932,14.7928932 C29.1834175,14.4023689 29.8165825,14.4023689 30.2071068,14.7928932 Z M27.9142136,19.9142136 L29.7928932,21.7928932 C30.1834175,22.1834175 30.1834175,22.8165825 29.7928932,23.2071068 L23.2071068,29.7928932 C22.8165825,30.1834175 22.1834175,30.1834175 21.7928932,29.7928932 L19.9142136,27.9142136 L27.9142136,19.9142136 Z M23.2071068,15.2071068 L25.0862136,17.0862136 L17.0862136,25.0862136 L15.2071068,23.2071068 C14.8165825,22.8165825 14.8165825,22.1834175 15.2071068,21.7928932 L21.7928932,15.2071068 C22.1834175,14.8165825 22.8165825,14.8165825 23.2071068,15.2071068 Z" fill="#000000" fill-rule="evenodd"/></svg>