<svg width="45" height="45" viewBox="0 0 45 45" xmlns="http://www.w3.org/2000/svg"><path d="M19,14 C19.5522847,14 20,14.4477153 20,15 C20,15.5522847 19.5522847,16 19,16 L17,16 C16.4477153,16 16,16.4477153 16,17 L16,19 C16,19.5522847 15.5522847,20 15,20 C14.4477153,20 14,19.5522847 14,19 L14,17 C14,15.3431458 15.3431458,14 17,14 L19,14 Z M31,19 C31,19.5522847 30.5522847,20 30,20 C29.4477153,20 29,19.5522847 29,19 L29,17 C29,16.4477153 28.5522847,16 28,16 L26,16 C25.4477153,16 25,15.5522847 25,15 C25,14.4477153 25.4477153,14 26,14 L28,14 C29.6568542,14 31,15.3431458 31,17 L31,19 Z M26,31 C25.4477153,31 25,30.5522847 25,30 C25,29.4477153 25.4477153,29 26,29 L28,29 C28.5522847,29 29,28.5522847 29,28 L29,26 C29,25.4477153 29.4477153,25 30,25 C30.5522847,25 31,25.4477153 31,26 L31,28 C31,29.6568542 29.6568542,31 28,31 L26,31 Z M14,26 C14,25.4477153 14.4477153,25 15,25 C15.5522847,25 16,25.4477153 16,26 L16,28 C16,28.5522847 16.4477153,29 17,29 L19,29 C19.5522847,29 20,29.4477153 20,30 C20,30.5522847 19.5522847,31 19,31 L17,31 C15.3431458,31 14,29.6568542 14,28 L14,26 Z" fill="#000000"/></svg>