<svg width="45" height="45" viewBox="0 0 45 45" xmlns="http://www.w3.org/2000/svg"><path d="M18 14C18.5522847 14 19 14.4477153 19 15 19 15.5522847 18.5522847 16 18 16L17 16C16.4477153 16 16 16.4477153 16 17L16 18C16 18.5522847 15.5522847 19 15 19 14.4477153 19 14 18.5522847 14 18L14 17C14 15.3431458 15.3431458 14 17 14L18 14ZM31 18C31 18.5522847 30.5522847 19 30 19 29.4477153 19 29 18.5522847 29 18L29 17C29 16.4477153 28.5522847 16 28 16L27 16C26.4477153 16 26 15.5522847 26 15 26 14.4477153 26.4477153 14 27 14L28 14C29.6568542 14 31 15.3431458 31 17L31 18ZM27 31C26.4477153 31 26 30.5522847 26 30 26 29.4477153 26.4477153 29 27 29L28 29C28.5522847 29 29 28.5522847 29 28L29 27C29 26.4477153 29.4477153 26 30 26 30.5522847 26 31 26.4477153 31 27L31 28C31 29.6568542 29.6568542 31 28 31L27 31ZM14 27C14 26.4477153 14.4477153 26 15 26 15.5522847 26 16 26.4477153 16 27L16 28C16 28.5522847 16.4477153 29 17 29L18 29C18.5522847 29 19 29.4477153 19 30 19 30.5522847 18.5522847 31 18 31L17 31C15.3431458 31 14 29.6568542 14 28L14 27ZM23.2071068 15.2071068 29.7928932 21.7928932C30.1834175 22.1834175 30.1834175 22.8165825 29.7928932 23.2071068L23.2071068 29.7928932C22.8165825 30.1834175 22.1834175 30.1834175 21.7928932 29.7928932L15.2071068 23.2071068C14.8165825 22.8165825 14.8165825 22.1834175 15.2071068 21.7928932L21.7928932 15.2071068C22.1834175 14.8165825 22.8165825 14.8165825 23.2071068 15.2071068ZM22.5 17.329 17.329 22.5 22.5 27.671 27.671 22.5 22.5 17.329Z" fill="#000000"/></svg>