<svg width="45" height="45" viewBox="0 0 45 45" xmlns="http://www.w3.org/2000/svg"><path d="M17.1464466,27.1464466 L17.8535534,27.8535534 L15.3535534,30.3535534 L14.6464466,29.6464466 L17.1464466,27.1464466 Z M27.8535534,27.1464466 L30.3535534,29.6464466 L29.6464466,30.3535534 L27.1464466,27.8535534 L27.8535534,27.1464466 Z M23.2071068,15.2071068 L29.7928932,21.7928932 C30.1834175,22.1834175 30.1834175,22.8165825 29.7928932,23.2071068 L23.2071068,29.7928932 C22.8165825,30.1834175 22.1834175,30.1834175 21.7928932,29.7928932 L15.2071068,23.2071068 C14.8165825,22.8165825 14.8165825,22.1834175 15.2071068,21.7928932 L21.7928932,15.2071068 C22.1834175,14.8165825 22.8165825,14.8165825 23.2071068,15.2071068 Z M29.6464466,14.6464466 L30.3535534,15.3535534 L27.8535534,17.8535534 L27.1464466,17.1464466 L29.6464466,14.6464466 Z M15.3535534,14.6464466 L17.8535534,17.1464466 L17.1464466,17.8535534 L14.6464466,15.3535534 L15.3535534,14.6464466 Z M20.7868105,14.1744381 L19.8208847,14.4332571 L18.9058212,11.0181936 L19.871747,10.7593745 L20.7868105,14.1744381 Z M26.0941788,33.9818064 L25.128253,34.2406255 L24.2131895,30.8255619 L25.1791153,30.5667429 L26.0941788,33.9818064 Z M25.1791153,14.4332571 L24.2131895,14.1744381 L25.128253,10.7593745 L26.0941788,11.0181936 L25.1791153,14.4332571 Z M19.871747,34.2406255 L18.9058212,33.9818064 L19.8208847,30.5667429 L20.7868105,30.8255619 L19.871747,34.2406255 Z M30.8255619,20.7868105 L30.5667429,19.8208847 L33.9818064,18.9058212 L34.2406255,19.871747 L30.8255619,20.7868105 Z M11.0181936,26.0941788 L10.7593745,25.128253 L14.1744381,24.2131895 L14.4332571,25.1791153 L11.0181936,26.0941788 Z M30.5667429,25.1791153 L30.8255619,24.2131895 L34.2406255,25.128253 L33.9818064,26.0941788 L30.5667429,25.1791153 Z M10.7593745,19.871747 L11.0181936,18.9058212 L14.4332571,19.8208847 L14.1744381,20.7868105 L10.7593745,19.871747 Z" fill="#000000" fill-rule="evenodd"/></svg>