<svg width="45" height="45" viewBox="0 0 45 45" xmlns="http://www.w3.org/2000/svg"><path d="M29,19 C30.1045695,19 31,19.8954305 31,21 L31,29 C31,30.1045695 30.1045695,31 29,31 L21,31 C19.8954305,31 19,30.1045695 19,29 L19,21 C19,19.8954305 19.8954305,19 21,19 L29,19 Z M29,20 L21,20 C20.4477153,20 20,20.4477153 20,21 L20,29 C20,29.5522847 20.4477153,30 21,30 L29,30 C29.5522847,30 30,29.5522847 30,29 L30,21 C30,20.5 29.5522847,20 29,20 Z M24,14 C25.1045695,14 26,14.8954305 26,16 L26,18 L25,18 L25,16 C25,15.5 24.5522847,15 24,15 L16,15 C15.4477153,15 15,15.4477153 15,16 L15,24 C15,24.5522847 15.4477153,25 16,25 L18,25 L18,26 L16,26 C14.8954305,26 14,25.1045695 14,24 L14,16 C14,14.8954305 14.8954305,14 16,14 L24,14 Z" fill="#000000"/></svg>