<svg width="45" height="45" viewBox="0 0 45 45" xmlns="http://www.w3.org/2000/svg"><path d="M24.88,15.9992136 L23.88,16.9992136 L17,17 C16.4477153,17 16,17.4477153 16,18 L16,28 C16,28.5522847 16.4477153,29 17,29 L27,29 C27.5522847,29 28,28.5522847 28,28 L28,21.1202136 L29,20.1202136 L29,28 C29,29.1045695 28.1045695,30 27,30 L17,30 C15.8954305,30 15,29.1045695 15,28 L15,18 C15,16.8954305 15.8954305,16 17,16 L24.88,15.9992136 Z M29.5606602,14.8535534 L30.1464466,15.4393398 C30.732233,16.0251263 30.732233,16.9748737 30.1464466,17.5606602 L23.0204787,24.6866281 C22.8558164,24.8512904 22.6550778,24.9753537 22.4341601,25.0489929 L18.7094306,26.2905694 L19.9510071,22.5658399 C20.0246463,22.3449222 20.1487096,22.1441836 20.3133719,21.9795213 L27.4393398,14.8535534 C28.0251263,14.267767 28.9748737,14.267767 29.5606602,14.8535534 Z M28.1464466,15.5606602 L21.0204787,22.6866281 C20.9655912,22.7415156 20.9242368,22.8084284 20.8996904,22.8820676 L20.29,24.709 L22.1179324,24.1003096 C22.1670252,24.0839453 22.2131285,24.0601108 22.2546722,24.0297765 L22.3133719,23.9795213 L29.4393398,16.8535534 C29.634602,16.6582912 29.634602,16.3417088 29.4393398,16.1464466 L28.8535534,15.5606602 C28.6582912,15.365398 28.3417088,15.365398 28.1464466,15.5606602 Z" fill="#000000"/></svg>