<svg width="45" height="45" viewBox="0 0 45 45" xmlns="http://www.w3.org/2000/svg"><path d="M22.5,13 L26.7230483,16.0713078 C27.5691087,16.6866245 28.3133755,17.4308913 28.9286922,18.2769517 L32,22.5 L28.9286922,26.7230483 C28.3133755,27.5691087 27.5691087,28.3133755 26.7230483,28.9286922 L22.5,32 L18.2769517,28.9286922 C17.4308913,28.3133755 16.6866245,27.5691087 16.0713078,26.7230483 L13,22.5 L16.0713078,18.2769517 C16.6866245,17.4308913 17.4308913,16.6866245 18.2769517,16.0713078 L22.5,13 Z M22.5,14.236 L18.8651234,16.8800439 C18.1036691,17.4338289 17.4338289,18.1036691 16.8800439,18.8651234 L14.236,22.499 L16.8800439,26.1348766 C17.3646058,26.8011491 17.9380224,27.3972796 18.5839202,27.9068944 L18.8651234,28.1199561 L22.5,30.763 L26.1348766,28.1199561 C26.8011491,27.6353942 27.3972796,27.0619776 27.9068944,26.4160798 L28.1199561,26.1348766 L30.763,22.499 L28.1199561,18.8651234 C27.6353942,18.1988509 27.0619776,17.6027204 26.4160798,17.0931056 L26.1348766,16.8800439 L22.5,14.236 Z" fill="#000000"/></svg>