<svg width="35" height="35" viewBox="0 0 35 35" xmlns="http://www.w3.org/2000/svg"><path d="M18,8 C23.5228475,8 28,12.4771525 28,18 C28,23.5228475 23.5228475,28 18,28 C12.4771525,28 8,23.5228475 8,18 C8,12.4771525 12.4771525,8 18,8 Z M15.0766888,23.234091 L14.7859395,23.2842226 C15.4338084,25.2437298 16.4193173,26.600911 17.5005958,26.9252183 L17.5009433,23.0068239 C16.8546976,23.0244967 16.2082965,23.0764997 15.5616864,23.1628694 L15.0766888,23.234091 Z M18.5000569,23.0068513 L18.5004033,26.9249184 C19.5812898,26.6000749 20.5663912,25.2431262 21.2140605,23.2842226 C20.4902865,23.1557805 19.7664627,23.0711902 19.0427848,23.0298021 L18.5000569,23.0068513 Z M13.7973315,23.4850719 L13.6139652,23.5268451 C12.8937178,23.6998102 12.1731451,23.9153981 11.4521732,24.1736591 C12.5265954,25.3133846 13.8939217,26.1715726 15.433727,26.6288315 C14.8290664,25.9196999 14.3129091,24.9627377 13.9135928,23.830071 L13.7973315,23.4850719 Z M22.2021489,23.4836099 L22.1629805,23.6064059 C21.7539906,24.8369568 21.2103403,25.873531 20.5663106,26.6302505 C22.1060783,26.1715726 23.4734046,25.3133846 24.5472454,24.175274 C23.9609331,23.9638824 23.374558,23.7816622 22.7883258,23.6279053 L22.2021489,23.4836099 Z M13.0059495,18.5005467 L9.01370152,18.5008636 C9.11326456,20.3159556 9.75065866,21.9877792 10.7692345,23.3596852 L11.3837357,23.1378398 C12.0968686,22.8923887 12.8103489,22.6866051 13.5241149,22.5205312 C13.2218442,21.302609 13.0402493,19.9397948 13.0059495,18.5005467 Z M26.9862985,18.5008636 L22.9940505,18.5005467 C22.9597507,19.9397948 22.7781558,21.302609 22.4755799,22.5230701 C23.3944784,22.7342629 24.3125987,23.013765 25.2301141,23.3589477 C26.2493413,21.9877792 26.8867354,20.3159556 26.9862985,18.5008636 Z M17.5,18.5 L14.0063378,18.5005405 C14.0413959,19.8817859 14.2204219,21.1761121 14.5065772,22.3179435 C15.5040455,22.1359643 16.5018952,22.0324126 17.500078,22.0064911 L17.5,18.5 Z M21.9936622,18.5005405 L18.5,18.5 L18.5,22.006 L18.5129453,22.0068337 C19.5067841,22.0333148 20.500292,22.1367517 21.4933024,22.317031 C21.7795781,21.1761121 21.9586041,19.8817859 21.9936622,18.5005405 Z M9.01364679,17.5001352 L13.0059258,17.5004505 C13.0401654,16.0608347 13.2217743,14.6976729 13.5244201,13.4769299 C12.8104507,13.3125486 12.0969025,13.1073292 11.383747,12.8620662 L10.7692345,12.6403148 C9.81838935,13.9209952 9.19971765,15.4630331 9.04065124,17.1389967 L9.01364679,17.5001352 Z M14.5066976,13.682969 L14.5032998,13.6951596 C14.2189864,14.8340615 14.041176,16.1241185 14.0063125,17.5004574 L17.5,17.5 L17.500078,13.9935089 C16.5018952,13.9675874 15.5040455,13.8640357 14.5066976,13.682969 Z M21.4934228,13.6820565 L21.0766888,13.754091 C20.2565938,13.8852092 19.4361754,13.96392 18.6155275,13.9901596 L18.5,13.993 L18.5,17.5 L21.9936875,17.5004574 C21.9630649,16.2915399 21.8221571,15.1491901 21.5956608,14.1173698 L21.4934228,13.6820565 Z M25.2307655,12.6403148 L25.1740356,12.6620677 C24.2751887,12.9975963 23.3757639,13.2700915 22.4758851,13.4794688 C22.7782257,14.6976729 22.9598346,16.0608347 22.9940742,17.5004505 L26.9863532,17.5001352 C26.8935949,15.8056895 26.3321289,14.2360673 25.4293873,12.9187002 L25.2307655,12.6403148 Z M14.8644051,12.48606 L14.7854103,12.7169464 C15.6909906,12.8763888 16.5961194,12.968432 17.5009433,12.9931761 L17.5005958,9.07478166 C16.462096,9.38625837 15.5119378,10.6504984 14.8644051,12.48606 Z M18.5004033,9.07508164 L18.5000569,12.9931487 C19.4045476,12.9683642 20.309343,12.87633 21.2145897,12.7169464 C20.5663912,10.7568738 19.5812898,9.39992513 18.5004033,9.07508164 Z M15.4336894,9.3697495 L15.2032625,9.44301121 C13.7574474,9.91525254 12.4727147,10.7437209 11.4527546,11.824726 C12.2345044,12.1065815 13.0163656,12.3365765 13.7978511,12.5163901 C14.2105626,11.2311331 14.7686004,10.1512132 15.4336894,9.3697495 Z M20.566273,9.37116847 L20.6106646,9.42249727 C21.2562271,10.1995005 21.7986565,11.2597744 22.2026685,12.5149281 C22.9836344,12.3365765 23.7654956,12.1065815 24.5478268,11.8263409 C23.4734046,10.6866154 22.1060783,9.8284274 20.566273,9.37116847 Z" fill="#000000"/></svg>