<svg width="45" height="45" viewBox="0 0 45 45" xmlns="http://www.w3.org/2000/svg"><path d="M22.5,12.5 C28.0228475,12.5 32.5,16.9771525 32.5,22.5 C32.5,28.0228475 28.0228475,32.5 22.5,32.5 C16.9771525,32.5 12.5,28.0228475 12.5,22.5 C12.5,16.9771525 16.9771525,12.5 22.5,12.5 Z M19.5766888,27.734091 L19.2859395,27.7842226 C19.9338084,29.7437298 20.9193173,31.100911 22.0005958,31.4252183 L22.0009433,27.5068239 C21.3546976,27.5244967 20.7082965,27.5764997 20.0616864,27.6628694 L19.5766888,27.734091 Z M23.0000569,27.5068513 L23.0004033,31.4249184 C24.0812898,31.1000749 25.0663912,29.7431262 25.7140605,27.7842226 C24.9902865,27.6557805 24.2664627,27.5711902 23.5427848,27.5298021 L23.0000569,27.5068513 Z M18.2973315,27.9850719 L18.1139652,28.0268451 C17.3937178,28.1998102 16.6731451,28.4153981 15.9521732,28.6736591 C17.0265954,29.8133846 18.3939217,30.6715726 19.933727,31.1288315 C19.3290664,30.4196999 18.8129091,29.4627377 18.4135928,28.330071 L18.2973315,27.9850719 Z M26.7021489,27.9836099 L26.6629805,28.1064059 C26.2539906,29.3369568 25.7103403,30.373531 25.0663106,31.1302505 C26.6060783,30.6715726 27.9734046,29.8133846 29.0472454,28.675274 C28.4609331,28.4638824 27.874558,28.2816622 27.2883258,28.1279053 L26.7021489,27.9836099 Z M17.5059495,23.0005467 L13.5137015,23.0008636 C13.6132646,24.8159556 14.2506587,26.4877792 15.2692345,27.8596852 L15.8837357,27.6378398 C16.5968686,27.3923887 17.3103489,27.1866051 18.0241149,27.0205312 C17.7218442,25.802609 17.5402493,24.4397948 17.5059495,23.0005467 Z M31.4862985,23.0008636 L27.4940505,23.0005467 C27.4597507,24.4397948 27.2781558,25.802609 26.9755799,27.0230701 C27.8944784,27.2342629 28.8125987,27.513765 29.7301141,27.8589477 C30.7493413,26.4877792 31.3867354,24.8159556 31.4862985,23.0008636 Z M22,23 L18.5063378,23.0005405 C18.5413959,24.3817859 18.7204219,25.6761121 19.0065772,26.8179435 C20.0040455,26.6359643 21.0018952,26.5324126 22.000078,26.5064911 L22,23 Z M26.4936622,23.0005405 L23,23 L23,26.506 L23.0129453,26.5068337 C24.0067841,26.5333148 25.000292,26.6367517 25.9933024,26.817031 C26.2795781,25.6761121 26.4586041,24.3817859 26.4936622,23.0005405 Z M13.5136468,22.0001352 L17.5059258,22.0004505 C17.5401654,20.5608347 17.7217743,19.1976729 18.0244201,17.9769299 C17.3104507,17.8125486 16.5969025,17.6073292 15.883747,17.3620662 L15.2692345,17.1403148 C14.3183893,18.4209952 13.6997177,19.9630331 13.5406512,21.6389967 L13.5136468,22.0001352 Z M19.0066976,18.182969 L19.0032998,18.1951596 C18.7189864,19.3340615 18.541176,20.6241185 18.5063125,22.0004574 L22,22 L22.000078,18.4935089 C21.0018952,18.4675874 20.0040455,18.3640357 19.0066976,18.182969 Z M25.9934228,18.1820565 L25.5766888,18.254091 C24.7565938,18.3852092 23.9361754,18.46392 23.1155275,18.4901596 L23,18.493 L23,22 L26.4936875,22.0004574 C26.4630649,20.7915399 26.3221571,19.6491901 26.0956608,18.6173698 L25.9934228,18.1820565 Z M29.7307655,17.1403148 L29.6740356,17.1620677 C28.7751887,17.4975963 27.8757639,17.7700915 26.9758851,17.9794688 C27.2782257,19.1976729 27.4598346,20.5608347 27.4940742,22.0004505 L31.4863532,22.0001352 C31.3935949,20.3056895 30.8321289,18.7360673 29.9293873,17.4187002 L29.7307655,17.1403148 Z M19.3644051,16.98606 L19.2854103,17.2169464 C20.1909906,17.3763888 21.0961194,17.468432 22.0009433,17.4931761 L22.0005958,13.5747817 C20.962096,13.8862584 20.0119378,15.1504984 19.3644051,16.98606 Z M23.0004033,13.5750816 L23.0000569,17.4931487 C23.9045476,17.4683642 24.809343,17.37633 25.7145897,17.2169464 C25.0663912,15.2568738 24.0812898,13.8999251 23.0004033,13.5750816 Z M19.9336894,13.8697495 L19.7032625,13.9430112 C18.2574474,14.4152525 16.9727147,15.2437209 15.9527546,16.324726 C16.7345044,16.6065815 17.5163656,16.8365765 18.2978511,17.0163901 C18.7105626,15.7311331 19.2686004,14.6512132 19.9336894,13.8697495 Z M25.066273,13.8711685 L25.1106646,13.9224973 C25.7562271,14.6995005 26.2986565,15.7597744 26.7026685,17.0149281 C27.4836344,16.8365765 28.2654956,16.6065815 29.0478268,16.3263409 C27.9734046,15.1866154 26.6060783,14.3284274 25.066273,13.8711685 Z" fill="#000000"/></svg>