<svg width="20" height="20" viewBox="0 0 20 20" xmlns="http://www.w3.org/2000/svg"><g fill="none" fill-rule="evenodd"><path d="M12.5 4C13.0522847 4 13.5 4.44771525 13.5 5 13.5 5.55228475 13.0522847 6 12.5 6L3.5 6C2.94771525 6 2.5 5.55228475 2.5 5 2.5 4.44771525 2.94771525 4 3.5 4L12.5 4ZM12.5 9C13.0522847 9 13.5 9.44771525 13.5 10 13.5 10.5522847 13.0522847 11 12.5 11L3.5 11C2.94771525 11 2.5 10.5522847 2.5 10 2.5 9.44771525 2.94771525 9 3.5 9L12.5 9ZM12.5 14C13.0522847 14 13.5 14.4477153 13.5 15 13.5 15.5522847 13.0522847 16 12.5 16L3.5 16C2.94771525 16 2.5 15.5522847 2.5 15 2.5 14.4477153 2.94771525 14 3.5 14L12.5 14Z" fill="#000000" fill-rule="nonzero"/><circle fill="#000000" cx="16.5" cy="5" r="1"/><circle fill="#000000" cx="16.5" cy="10" r="1"/><circle fill="#000000" cx="16.5" cy="15" r="1"/></g></svg>