<svg xmlns="http://www.w3.org/2000/svg" width="25" height="25" viewBox="0 0 25 25"><path fill="#FFF" fill-rule="evenodd" d="M7.5,14 C8.32842712,14 9,13.3284271 9,12.5 C9,11.6715729 8.32842712,11 7.5,11 C6.67157288,11 6,11.6715729 6,12.5 C6,13.3284271 6.67157288,14 7.5,14 Z M12.5,14 C13.3284271,14 14,13.3284271 14,12.5 C14,11.6715729 13.3284271,11 12.5,11 C11.6715729,11 11,11.6715729 11,12.5 C11,13.3284271 11.6715729,14 12.5,14 Z M17.5,14 C18.3284271,14 19,13.3284271 19,12.5 C19,11.6715729 18.3284271,11 17.5,11 C16.6715729,11 16,11.6715729 16,12.5 C16,13.3284271 16.6715729,14 17.5,14 Z"/></svg>