<svg xmlns="http://www.w3.org/2000/svg" width="25" height="25" viewBox="0 0 25 25"><g fill="none" fill-rule="evenodd"><path fill="#FFF" d="M15,17.121 L16,18.121 L16,19 L15,19 L15,17.121 Z M11,13.12 L12,14.121 L12,18 L11,18 L11,13.12 Z M9,11.12 L10,12.12 L10,17 L9,17 L9,11.12 Z M7,9.12 L8,10.12 L8,16 L7,16 L7,9.12 Z M13,15.121 L13.879,16 L13,16 L13,15.121 Z M18,8 L18,15.879 L17,14.879 L17,8 L18,8 Z M6,11 L6,14 L5,14 L5,11 L6,11 Z M20,11 L20,14 L19,14 L19,11 L20,11 Z M16,6 L16,13.879 L15,12.879 L15,6 L16,6 Z M14,9 L14,11.879 L13,10.88 L13,9 L14,9 Z M12,7 L12,9.88 L11,8.88 L11,7 L12,7 Z" opacity=".5"/><polygon fill="#FFF" fill-rule="nonzero" points="7.354 6.646 18.354 17.646 17.646 18.354 6.646 7.354"/></g></svg>