<svg width="45" height="45" viewBox="0 0 45 45" xmlns="http://www.w3.org/2000/svg"><path d="M28,15 C29.1045695,15 30,15.8954305 30,17 L30,28 C30,29.1045695 29.1045695,30 28,30 L17,30 C15.8954305,30 15,29.1045695 15,28 L15,17 C15,15.8954305 15.8954305,15 17,15 L28,15 Z M28,16 L17,16 C16.4477153,16 16,16.4477153 16,17 L16,28 C16,28.5522847 16.4477153,29 17,29 L28,29 C28.5522847,29 29,28.5522847 29,28 L29,17 C29,16.4477153 28.5522847,16 28,16 Z M23,19.5 L23,22 L25.5,22 L25.5,23 L23,23 L23,25.5 L22,25.5 L22,23 L19.5,23 L19.5,22 L22,22 L22,19.5 L23,19.5 Z" fill="#000000"/></svg>