<svg width="20" height="20" viewBox="0 0 20 20" xmlns="http://www.w3.org/2000/svg"><path d="M10,0.5 L14.2230483,3.57130785 C15.0691087,4.18662448 15.8133755,4.93089134 16.4286922,5.77695171 L19.5,10 L16.4286922,14.2230483 C15.8133755,15.0691087 15.0691087,15.8133755 14.2230483,16.4286922 L10,19.5 L5.77695171,16.4286922 C4.93089134,15.8133755 4.18662448,15.0691087 3.57130785,14.2230483 L0.5,10 L3.57130785,5.77695171 C4.18662448,4.93089134 4.93089134,4.18662448 5.77695171,3.57130785 L10,0.5 Z M10,2.973 L6.95329511,5.18878001 C6.27644681,5.68103332 5.68103332,6.27644681 5.18878001,6.95329511 L2.973,10 L5.18878001,13.0467049 C5.61071142,13.6268606 6.10843398,14.1471866 6.66826641,14.5940017 L6.95329511,14.81122 L10,17.026 L13.0467049,14.81122 C13.6268606,14.3892886 14.1471866,13.891566 14.5940017,13.3317336 L14.81122,13.0467049 L17.026,10 L14.81122,6.95329511 C14.3892886,6.37313942 13.891566,5.8528134 13.3317336,5.40599831 L13.0467049,5.18878001 L10,2.973 Z" fill="#000000"/></svg>