<svg xmlns="http://www.w3.org/2000/svg" width="25" height="25" viewBox="0 0 25 25"><path fill="#328173" d="M8,9.5 L8,11 L7.5,11 C6.94771525,11 6.5,11.4477153 6.5,12 L6.5,16 C6.5,16.5522847 6.94771525,17 7.5,17 L13.5,17 C13.869681,17 14.1925095,16.7994004 14.3655723,16.5011143 L15.9499027,16.5004345 C15.7180997,17.6413382 14.7093254,18.5 13.5,18.5 L7.5,18.5 C6.11928813,18.5 5,17.3807119 5,16 L5,12 C5,10.6192881 6.11928813,9.5 7.5,9.5 L8,9.5 Z M17.5,6.5 C18.8807119,6.5 20,7.61928813 20,9 L20,13 C20,14.3807119 18.8807119,15.5 17.5,15.5 L11.5,15.5 C10.1192881,15.5 9,14.3807119 9,13 L9,9 C9,7.61928813 10.1192881,6.5 11.5,6.5 L17.5,6.5 Z M17.5,8 L11.5,8 C10.9477153,8 10.5,8.44771525 10.5,9 L10.5,13 C10.5,13.5522847 10.9477153,14 11.5,14 L17.5,14 C18.0522847,14 18.5,13.5522847 18.5,13 L18.5,9 C18.5,8.44771525 18.0522847,8 17.5,8 Z M15,9 L15,10.499 L16.5,10.5 L16.5,11.5 L15,11.5 L15,13 L14,13 L14,11.5 L12.5,11.5 L12.5,10.5 L14,10.5 L14,9 L15,9 Z"/></svg>