<svg xmlns="http://www.w3.org/2000/svg" width="25" height="25" viewBox="0 0 25 25"><path fill="#328173" d="M11.25,5.75 C14.2875661,5.75 16.75,8.21243388 16.75,11.25 C16.75,12.4795761 16.3465183,13.6149139 15.6647334,14.5308349 L20.0927728,18.4678874 L18.4678874,20.0927728 L14.5308349,15.6647334 C13.6149139,16.3465183 12.4795761,16.75 11.25,16.75 C8.21243388,16.75 5.75,14.2875661 5.75,11.25 C5.75,8.21243388 8.21243388,5.75 11.25,5.75 Z M11.25,7.25 C9.040861,7.25 7.25,9.040861 7.25,11.25 C7.25,13.459139 9.040861,15.25 11.25,15.25 C13.459139,15.25 15.25,13.459139 15.25,11.25 C15.25,9.040861 13.459139,7.25 11.25,7.25 Z"/></svg>