<svg width="45" height="45" viewBox="0 0 45 45" xmlns="http://www.w3.org/2000/svg"><path d="M23.0833333,12.5 C23.6888846,12.5 24.2350444,12.8641065 24.467875,13.4229001 L25.228,15.245 L25.3172839,15.2781184 C25.4179308,15.3174083 25.5177051,15.3587989 25.6165484,15.4022585 L25.702,15.442 L27.526804,14.6900963 C28.0400823,14.4787464 28.6237049,14.5693037 29.0472258,14.9156792 L29.1585889,15.0164532 L29.9835468,15.8414111 C30.4117362,16.2696006 30.5404673,16.913256 30.309864,17.4732926 L29.557,19.297 L29.5978931,19.3837965 C29.6413984,19.482757 29.6828299,19.5826504 29.7221557,19.6834183 L29.754,19.772 L31.5769231,20.5320513 C32.0928958,20.7470399 32.4428306,21.2289444 32.4936136,21.7780939 L32.5,21.9166667 L32.5,23.0833333 C32.5,23.6888846 32.1358935,24.2350444 31.5770999,24.467875 L29.754,25.228 L29.7218816,25.3172839 C29.6825917,25.4179308 29.6412011,25.5177051 29.5977415,25.6165484 L29.557,25.702 L30.3099037,27.526804 C30.5212536,28.0400823 30.4306963,28.6237049 30.0843208,29.0472258 L29.9835468,29.1585889 L29.1585889,29.9835468 C28.7303994,30.4117362 28.086744,30.5404673 27.5267074,30.309864 L25.702,29.557 L25.6165484,29.5977415 C25.5177051,29.6412011 25.4179308,29.6825917 25.3172839,29.7218816 L25.228,29.754 L24.4679487,31.5769231 C24.2529601,32.0928958 23.7710556,32.4428306 23.2219061,32.4936136 L23.0833333,32.5 L21.9166667,32.5 C21.3111154,32.5 20.7649556,32.1358935 20.5320555,31.5769332 L19.772,29.754 L19.6834183,29.7221557 C19.5826504,29.6828299 19.482757,29.6413984 19.3837965,29.5978931 L19.297,29.557 L17.473196,30.3099037 C16.9599177,30.5212536 16.3762951,30.4306963 15.9527742,30.0843208 L15.8414111,29.9835468 L15.0164532,29.1585889 C14.5882638,28.7303994 14.4595327,28.086744 14.690136,27.5267074 L15.442,25.702 L15.4022585,25.6165484 C15.3587989,25.5177051 15.3174083,25.4179308 15.2781184,25.3172839 L15.245,25.228 L13.4230769,24.4679487 C12.9071042,24.2529601 12.5571694,23.7710556 12.5063864,23.2219061 L12.5,23.0833333 L12.5,21.9166667 C12.5,21.3111154 12.8641065,20.7649556 13.4230668,20.5320555 L15.245,19.772 L15.2778443,19.6834183 C15.3171701,19.5826504 15.3586016,19.482757 15.4021069,19.3837965 L15.442,19.297 L14.6900963,17.473196 C14.4787464,16.9599177 14.5693037,16.3762951 14.9156792,15.9527742 L15.0164532,15.8414111 L15.8414111,15.0164532 C16.2696006,14.5882638 16.913256,14.4595327 17.4732926,14.690136 L19.297,15.442 L19.3837965,15.4021069 C19.482757,15.3586016 19.5826504,15.3171701 19.6834183,15.2778443 L19.772,15.245 L20.5320513,13.4230769 C20.7470399,12.9071042 21.2289444,12.5571694 21.7780939,12.5063864 L21.9166667,12.5 L23.0833333,12.5 Z M23.0833333,13.5 L21.9166667,13.5 C21.7148162,13.5 21.532763,13.6213688 21.455124,13.8077025 L20.5252057,16.0393682 L20.3122301,16.1122925 C20.0447819,16.2038687 19.7836972,16.3121952 19.5303355,16.4365342 L19.3279881,16.5358376 L17.0924462,15.6147744 C16.9057996,15.5379198 16.6912477,15.5808302 16.5485179,15.72356 L15.72356,16.5485179 C15.5808302,16.6912477 15.5379198,16.9057996 15.6147346,17.0923497 L16.5358376,19.3279881 L16.4365342,19.5303355 C16.3121952,19.7836972 16.2038687,20.0447819 16.1122925,20.3122301 L16.0393682,20.5252057 L13.8076923,21.4551282 C13.6213688,21.532763 13.5,21.7148162 13.5,21.9166667 L13.5,23.0833333 C13.5,23.2851838 13.6213688,23.467237 13.8078692,23.5449455 L16.0397055,24.4758812 L16.1126116,24.6887015 C16.2041203,24.9558246 16.3123397,25.2165972 16.4365342,25.4696645 L16.5358376,25.6720119 L15.6147744,27.9075538 C15.5379198,28.0942004 15.5808302,28.3087523 15.72356,28.4514821 L16.5485179,29.27644 C16.6912477,29.4191698 16.9057996,29.4620802 17.0923497,29.3852654 L19.3279881,28.4641624 L19.5303355,28.5634658 C19.7836972,28.6878048 20.0447819,28.7961313 20.3122301,28.8877075 L20.5252057,28.9606318 L21.4551282,31.1923077 C21.532763,31.3786312 21.7148162,31.5 21.9166667,31.5 L23.0833333,31.5 C23.2851838,31.5 23.467237,31.3786312 23.5449455,31.1921308 L24.4758812,28.9602945 L24.6887015,28.8873884 C24.9558246,28.7958797 25.2165972,28.6876603 25.4696645,28.5634658 L25.6720119,28.4641624 L27.9075538,29.3852256 C28.0942004,29.4620802 28.3087523,29.4191698 28.4514821,29.27644 L29.27644,28.4514821 C29.4191698,28.3087523 29.4620802,28.0942004 29.3852654,27.9076503 L28.4641624,25.6720119 L28.5634658,25.4696645 C28.6876603,25.2165972 28.7958797,24.9558246 28.8873884,24.6887015 L28.9602945,24.4758812 L31.1923077,23.5448718 C31.3786312,23.467237 31.5,23.2851838 31.5,23.0833333 L31.5,21.9166667 C31.5,21.7148162 31.3786312,21.532763 31.1922975,21.455124 L28.9606318,20.5252057 L28.8877075,20.3122301 C28.7961313,20.0447819 28.6878048,19.7836972 28.5634658,19.5303355 L28.4641624,19.3279881 L29.3852256,17.0924462 C29.4620802,16.9057996 29.4191698,16.6912477 29.27644,16.5485179 L28.4514821,15.72356 C28.3087523,15.5808302 28.0942004,15.5379198 27.9076503,15.6147346 L25.6720119,16.5358376 L25.4696645,16.4365342 C25.2165972,16.3123397 24.9558246,16.2041203 24.6887015,16.1126116 L24.4758812,16.0397055 L23.5448718,13.8076923 C23.467237,13.6213688 23.2851838,13.5 23.0833333,13.5 Z M22.5,17.5 C25.2614237,17.5 27.5,19.7385763 27.5,22.5 C27.5,25.2614237 25.2614237,27.5 22.5,27.5 C19.7385763,27.5 17.5,25.2614237 17.5,22.5 C17.5,19.7385763 19.7385763,17.5 22.5,17.5 Z M22.5,18.5 C20.290861,18.5 18.5,20.290861 18.5,22.5 C18.5,24.709139 20.290861,26.5 22.5,26.5 C24.709139,26.5 26.5,24.709139 26.5,22.5 C26.5,20.290861 24.709139,18.5 22.5,18.5 Z" fill="#000000"/></svg>