<svg width="45" height="45" viewBox="0 0 45 45" xmlns="http://www.w3.org/2000/svg"><g fill="none" fill-rule="evenodd"><path d="M23.0833333,12.5 C23.6888846,12.5 24.2350444,12.8641065 24.4678013,13.4227232 L25.227,15.245 L25.3170578,15.2780301 C25.4176683,15.3173022 25.5174444,15.3586881 25.6163261,15.4021608 L25.702,15.442 L27.5269006,14.6900565 C28.0401279,14.4787276 28.6237382,14.5693272 29.0472332,14.9156855 L29.1585889,15.0164532 L29.9835468,15.8414111 C30.4117362,16.2696006 30.5404673,16.913256 30.3098242,17.4733891 L29.557,19.298 L29.5979911,19.3840193 C29.6415095,19.4830182 29.6829363,19.5829136 29.7222442,19.683645 L29.755,19.773 L31.5769129,20.5320471 C32.092891,20.7470379 32.4428299,21.2289401 32.4936135,21.778093 L32.5,21.9166667 L32.5,23.0833333 C32.5,23.6888846 32.1358935,24.2350444 31.5772768,24.4678013 L29.754,25.227 L29.7219699,25.3170578 C29.6826978,25.4176683 29.6413119,25.5174444 29.5978392,25.6163261 L29.557,25.702 L30.3099435,27.5269006 C30.5212724,28.0401279 30.4306728,28.6237382 30.0843145,29.0472332 L29.9835468,29.1585889 L29.1585889,29.9835468 C28.7303994,30.4117362 28.086744,30.5404673 27.5266109,30.3098242 L25.702,29.557 L25.6163261,29.5978392 C25.5174444,29.6413119 25.4176683,29.6826978 25.3170578,29.7219699 L25.228,29.754 L24.4680224,31.5767464 C24.2529945,32.092813 23.7711297,32.4428189 23.2219226,32.4936123 L23.0833333,32.5 L21.9166667,32.5 C21.3111154,32.5 20.7649556,32.1358935 20.5320597,31.5769434 L19.773,29.755 L19.683645,29.7222442 C19.5829136,29.6829363 19.4830182,29.6415095 19.3840193,29.5979911 L19.298,29.557 L17.4730994,30.3099435 C16.9598721,30.5212724 16.3762618,30.4306728 15.9527668,30.0843145 L15.8414111,29.9835468 L15.0164532,29.1585889 C14.5882638,28.7303994 14.4595327,28.086744 14.6901758,27.5266109 L15.442,25.702 L15.4021608,25.6163261 C15.3586881,25.5174444 15.3173022,25.4176683 15.2780301,25.3170578 L15.245,25.227 L13.4232536,24.4680224 C12.907187,24.2529945 12.5571811,23.7711297 12.5063877,23.2219226 L12.5,23.0833333 L12.5,21.9166667 C12.5,21.3111154 12.8641065,20.7649556 13.4230566,20.5320597 L15.244,19.773 L15.2777558,19.683645 C15.3170637,19.5829136 15.3584905,19.4830182 15.4020089,19.3840193 L15.442,19.298 L14.6900565,17.4730994 C14.4787276,16.9598721 14.5693272,16.3762618 14.9156855,15.9527668 L15.0164532,15.8414111 L15.8414111,15.0164532 C16.2696006,14.5882638 16.913256,14.4595327 17.4733891,14.6901758 L19.298,15.442 L19.3840193,15.4020089 C19.4830182,15.3584905 19.5829136,15.3170637 19.683645,15.2777558 L19.773,15.244 L20.5320471,13.4230871 C20.7470379,12.907109 21.2289401,12.5571701 21.778093,12.5063865 L21.9166667,12.5 L23.0833333,12.5 Z M22.749,14.5 L22.25,14.5 L21.4482741,16.4240039 L21.2751,16.8395961 L20.6361734,17.058369 C20.4089074,17.1361865 20.1867574,17.2283216 19.9708986,17.3342558 L19.7685512,17.4335592 L19.3638563,17.632166 L18.9470452,17.4604361 L17.019,16.666 L16.666,17.019 L17.4604361,18.9470452 L17.632166,19.3638563 L17.4335592,19.7685512 L17.3342558,19.9708986 C17.2283216,20.1867574 17.1361865,20.4089074 17.058369,20.6361734 L16.8395961,21.2751 L16.4240039,21.4482741 L14.5,22.25 L14.5,22.75 L16.4246746,23.5529518 L16.839922,23.7261584 L16.9857343,24.1517988 L17.0586404,24.364619 C17.1364008,24.5916092 17.2284448,24.8134936 17.3342558,25.0291014 L17.4335592,25.2314488 L17.632166,25.6361437 L17.4604361,26.0529548 L16.666,27.98 L17.019,28.333 L18.9470452,27.5395639 L19.3638563,27.367834 L19.7685512,27.5664408 L19.9708986,27.6657442 C20.1867574,27.7716784 20.4089074,27.8638135 20.6361734,27.941631 L21.2751,28.1604039 L21.4482741,28.5759961 L22.25,30.5 L22.75,30.5 L23.5529518,28.5753254 L23.7261584,28.160078 L24.1517988,28.0142657 L24.364619,27.9413596 C24.5916092,27.8635992 24.8134936,27.7715552 25.0291014,27.6657442 L25.2314488,27.5664408 L25.6361437,27.367834 L26.0529548,27.5395639 L27.98,28.333 L28.333,27.98 L27.5395639,26.0529548 L27.367834,25.6361437 L27.5664408,25.2314488 L27.6657442,25.0291014 C27.7715552,24.8134936 27.8635992,24.5916092 27.9413596,24.364619 L28.0142657,24.1517988 L28.160078,23.7261584 L28.5753255,23.5529518 L30.5,22.749 L30.5,22.25 L28.5759961,21.4482741 L28.1604039,21.2751 L27.941631,20.6361734 C27.8638135,20.4089074 27.7716784,20.1867574 27.6657442,19.9708986 L27.5664408,19.7685512 L27.367834,19.3638563 L27.5395639,18.9470452 L28.333,17.019 L27.98,16.666 L26.0529548,17.4604361 L25.6361437,17.632166 L25.2314488,17.4335592 L25.0291014,17.3342558 C24.8134936,17.2284448 24.5916092,17.1364008 24.364619,17.0586404 L24.1517988,16.9857343 L23.7261584,16.839922 L23.5529518,16.4246745 L22.749,14.5 Z" fill="#000000" fill-rule="nonzero"/><path d="M22.5,19 C24.4329966,19 26,20.5670034 26,22.5 C26,24.4329966 24.4329966,26 22.5,26 C20.5670034,26 19,24.4329966 19,22.5 C19,20.5670034 20.5670034,19 22.5,19 Z M22.5,21 C21.6715729,21 21,21.6715729 21,22.5 C21,23.3284271 21.6715729,24 22.5,24 C23.3284271,24 24,23.3284271 24,22.5 C24,21.6715729 23.3284271,21 22.5,21 Z" fill="#000000" fill-rule="nonzero"/></g></svg>