<svg width="45" height="45" viewBox="0 0 45 45" xmlns="http://www.w3.org/2000/svg"><path d="M22.6488348,18.6119805 L24.7701551,20.7333009 C25.3559415,21.3190873 25.3559415,22.2688348 24.7701551,22.8546212 L23.2082136,24.4146407 L22.5012136,23.7076407 L24.0630483,22.1475144 C24.2583105,21.9522523 24.2583105,21.6356698 24.0630483,21.4404076 L21.941728,19.3190873 C21.7464658,19.1238252 21.4298833,19.1238252 21.2346212,19.3190873 L14.8706602,25.6830483 C14.675398,25.8783105 14.675398,26.194893 14.8706602,26.3901551 L16.9919805,28.5114755 C17.1872427,28.7067376 17.5038252,28.7067376 17.6990873,28.5114755 L20.3802136,25.8286407 L21.0872136,26.5356407 L18.4061941,29.2185822 C17.8204076,29.8043687 16.8706602,29.8043687 16.2848737,29.2185822 L14.1635534,27.0972619 C13.577767,26.5114755 13.577767,25.561728 14.1635534,24.9759415 L20.5275144,18.6119805 C21.1133009,18.0261941 22.0630483,18.0261941 22.6488348,18.6119805 Z M28.7199026,15.7835534 L30.8412229,17.9048737 C31.4270094,18.4906602 31.4270094,19.4404076 30.8412229,20.0261941 L24.4772619,26.3901551 C23.8914755,26.9759415 22.941728,26.9759415 22.3559415,26.3901551 L20.2346212,24.2688348 C19.6488348,23.6830483 19.6488348,22.7333009 20.2346212,22.1475144 L21.7952814,20.5862136 L22.5022814,21.2932136 L20.941728,22.8546212 C20.7464658,23.0498833 20.7464658,23.3664658 20.941728,23.561728 L23.0630483,25.6830483 C23.2583105,25.8783105 23.574893,25.8783105 23.7701551,25.6830483 L30.1341161,19.3190873 C30.3293783,19.1238252 30.3293783,18.8072427 30.1341161,18.6119805 L28.0127958,16.4906602 C27.8175336,16.295398 27.5009512,16.295398 27.305689,16.4906602 L24.6232814,19.1722136 L23.9162814,18.4652136 L26.5985822,15.7835534 C27.1843687,15.197767 28.1341161,15.197767 28.7199026,15.7835534 Z" fill="#000000"/></svg>