<svg xmlns="http://www.w3.org/2000/svg" width="25" height="25" viewBox="0 0 25 25"><path fill="#328173" fill-rule="evenodd" d="M12.5,19.25 C12.9142136,19.25 13.25,19.5857864 13.25,20 C13.25,20.4142136 12.9142136,20.75 12.5,20.75 C12.0857864,20.75 11.75,20.4142136 11.75,20 C11.75,19.5857864 12.0857864,19.25 12.5,19.25 Z M10.0211754,18.7805253 C10.4064179,18.9327129 10.5953463,19.3683861 10.4431586,19.7536287 C10.290971,20.1388712 9.85529783,20.3277995 9.4700553,20.1756119 C9.08481277,20.0234243 8.89588443,19.5877511 9.04807205,19.2025085 C9.20025966,18.817266 9.63593287,18.6283377 10.0211754,18.7805253 Z M16.0669012,19.1418849 C16.2257528,19.5244277 16.0444152,19.9633147 15.6618724,20.1221663 C15.2793295,20.2810179 14.8404426,20.0996803 14.6815909,19.7171375 C14.5227393,19.3345946 14.7040769,18.8957077 15.0866198,18.7368561 C15.4691626,18.5780044 15.9080496,18.759342 16.0669012,19.1418849 Z M7.75688935,17.3026465 C8.051591,17.5937201 8.05453215,18.0685847 7.7634586,18.3632863 C7.47238505,18.657988 6.99752043,18.6609292 6.70281877,18.3698556 C6.40811712,18.0787821 6.40517597,17.6039174 6.69624952,17.3092158 C6.98732307,17.0145141 7.46218769,17.011573 7.75688935,17.3026465 Z M18.3378812,17.2677778 C18.6310335,17.5604118 18.6314537,18.0352853 18.3388197,18.3284376 C18.0461857,18.6215899 17.5713122,18.62201 17.2781599,18.3293761 C16.9850077,18.0367421 16.9845875,17.5618686 17.2772215,17.2687163 C17.5698554,16.9755641 18.044729,16.9751439 18.3378812,17.2677778 Z M12.5,7 C15.5375661,7 18,9.46243388 18,12.5 C18,15.5375661 15.5375661,18 12.5,18 C9.46243388,18 7,15.5375661 7,12.5 C7,9.46243388 9.46243388,7 12.5,7 Z M12.5,8.5 C10.290861,8.5 8.5,10.290861 8.5,12.5 C8.5,14.709139 10.290861,16.5 12.5,16.5 C14.709139,16.5 16.5,14.709139 16.5,12.5 C16.5,10.290861 14.709139,8.5 12.5,8.5 Z M6.2770198,15.1197839 C6.43792087,15.5014693 6.25893984,15.9413225 5.87725447,16.1022236 C5.4955691,16.2631246 5.05571588,16.0841436 4.89481481,15.7024582 C4.73391374,15.3207729 4.91289477,14.8809196 5.29458014,14.7200186 C5.67626551,14.5591175 6.11611872,14.7380985 6.2770198,15.1197839 Z M19.7421658,14.5969063 C20.1265552,14.7512359 20.3130556,15.187954 20.158726,15.5723435 C20.0043964,15.9567329 19.5676783,16.1432333 19.1832888,15.9889036 C18.7988994,15.834574 18.612399,15.3978559 18.7667287,15.0134665 C18.9210583,14.6290771 19.3577763,14.4425767 19.7421658,14.5969063 Z M12.5,10 C13.8807119,10 15,11.1192881 15,12.5 C15,13.8807119 13.8807119,15 12.5,15 C11.1192881,15 10,13.8807119 10,12.5 C10,11.1192881 11.1192881,10 12.5,10 Z M4.9962773,11.7890267 C5.41048548,11.7869356 5.74797879,12.1210064 5.7501091,12.5352146 C5.75220063,12.9494228 5.41812979,13.2869161 5.00392161,13.2890464 C4.58971342,13.2911379 4.25222011,12.9570671 4.25008939,12.5428589 C4.24799827,12.1286507 4.58206911,11.7911574 4.9962773,11.7890267 Z M19.9986897,11.7367287 C20.4129026,11.7360137 20.7492701,12.0712181 20.7499873,12.485431 C20.7507047,12.899644 20.4155003,13.2360114 20.0012873,13.2367287 C19.5870744,13.237446 19.2507069,12.9022416 19.2499873,12.4880287 C19.2492723,12.0738157 19.5844768,11.7374483 19.9986897,11.7367287 Z M5.80409684,9.03530766 C6.18904649,9.18823458 6.37713807,9.6242697 6.22421114,10.0092193 C6.07128421,10.394169 5.63524909,10.5822606 5.25029945,10.4293336 C4.8653498,10.2764067 4.67725823,9.8403716 4.83018515,9.45542195 C4.98311208,9.0704723 5.4191472,8.88238073 5.80409684,9.03530766 Z M20.116731,9.32507017 C20.276242,9.70733854 20.0956614,10.1465375 19.7133931,10.3060485 C19.3311247,10.4655595 18.8919257,10.284979 18.7324147,9.90271063 C18.5729037,9.52044225 18.7534842,9.08124328 19.1357526,8.92173227 C19.518021,8.76222126 19.9572199,8.94280179 20.116731,9.32507017 Z M7.70112106,6.68768933 C7.99530717,6.97928393 7.997408,7.45415302 7.7058134,7.74833913 C7.4142188,8.04252523 6.93934971,8.04462606 6.6451636,7.75303146 C6.3509775,7.46143686 6.34887667,6.98656777 6.64047127,6.69238167 C6.93206587,6.39819556 7.40693495,6.39609473 7.70112106,6.68768933 Z M18.3180371,6.65081658 C18.6117068,6.94293131 18.6129673,7.41780337 18.3208525,7.71147301 C18.0287378,8.00514265 17.5538657,8.00640315 17.2601961,7.71428842 C16.9665265,7.42217368 16.965266,6.94730162 17.2573807,6.65363198 C17.5494954,6.35996234 18.0243675,6.35870184 18.3180371,6.65081658 Z M10.2930103,5.29058195 C10.4532167,5.67255943 10.2734357,6.11208628 9.89145824,6.27229267 C9.50948077,6.43249905 9.06995391,6.25271805 8.90974753,5.87074058 C8.74954115,5.48876311 8.92932214,5.04923625 9.31129962,4.88902987 C9.69327709,4.72882349 10.1328039,4.90860448 10.2930103,5.29058195 Z M15.558467,4.8357174 C15.9431371,4.989346 16.1304333,5.42572336 15.9768047,5.81039352 C15.8231761,6.19506367 15.3867988,6.38235986 15.0021286,6.22873126 C14.6174585,6.07510266 14.4301623,5.6387253 14.5837909,5.25405515 C14.7374195,4.86938499 15.1737968,4.6820888 15.558467,4.8357174 Z M12.4712835,4.25004011 C12.8854947,4.24863489 13.2224255,4.583273 13.2238395,4.99748415 C13.2252538,5.4116953 12.8906157,5.74862615 12.4764045,5.75004011 C12.0621934,5.75145439 11.7252625,5.41681629 11.7238395,5.00260514 C11.7224343,4.58839399 12.0570724,4.25146314 12.4712835,4.25004011 Z"/></svg>