<svg xmlns="http://www.w3.org/2000/svg" width="25" height="25" viewBox="0 0 25 25"><path fill="#328173" fill-rule="evenodd" d="M12.5,7 C15.5375661,7 18,9.46243388 18,12.5 C18,15.5375661 15.5375661,18 12.5,18 C9.46243388,18 7,15.5375661 7,12.5 C7,9.46243388 9.46243388,7 12.5,7 Z M12.5,8.5 C10.290861,8.5 8.5,10.290861 8.5,12.5 C8.5,14.709139 10.290861,16.5 12.5,16.5 C14.709139,16.5 16.5,14.709139 16.5,12.5 C16.5,10.290861 14.709139,8.5 12.5,8.5 Z M12.5,10 C13.8807119,10 15,11.1192881 15,12.5 C15,13.8807119 13.8807119,15 12.5,15 C11.1192881,15 10,13.8807119 10,12.5 C10,11.1192881 11.1192881,10 12.5,10 Z"/></svg>