<svg xmlns="http://www.w3.org/2000/svg" width="25" height="25" viewBox="0 0 25 25"><g fill="none" fill-rule="evenodd"><path fill="#328173" fill-rule="nonzero" d="M18,12.5 C18,15.5375661 15.5375661,18 12.5,18 C11.5261678,18 10.6114489,17.7469063 9.81803249,17.3029083 L10.9382431,16.1836362 C11.4180711,16.3873249 11.9458772,16.5 12.5,16.5 C14.709139,16.5 16.5,14.709139 16.5,12.5 C16.5,11.9458772 16.3873249,11.4180711 16.1836362,10.9382431 L17.3029083,9.81803249 C17.7469063,10.6114489 18,11.5261678 18,12.5 Z M12.5,7 C13.4742438,7 14.3893244,7.25330769 15.1829735,7.69765476 L14.0627621,8.81679061 C13.5826661,8.61283249 13.0545098,8.5 12.5,8.5 C10.290861,8.5 8.5,10.290861 8.5,12.5 C8.5,13.0545098 8.61283249,13.5826661 8.81679061,14.0627621 L7.69765476,15.1829735 C7.25330769,14.3893244 7,13.4742438 7,12.5 C7,9.46243388 9.46243388,7 12.5,7 Z" opacity=".5"/><polygon fill="#328173" fill-rule="nonzero" points="17.47 6.47 18.53 7.53 7.53 18.53 6.47 17.47"/></g></svg>