<svg xmlns="http://www.w3.org/2000/svg" width="25" height="25" viewBox="0 0 25 25"><path fill="#328173" fill-rule="evenodd" d="M9.39198658,5.31085861 L10.8185714,5.7743841 L10.2649905,7.4739864 C11.8778368,6.75852628 13.8055909,6.8303425 15.414556,7.83573547 C17.9905581,9.44540028 18.7739293,12.8385538 17.1642645,15.414556 C15.5545997,17.9905581 12.1614462,18.7739293 9.58544405,17.1642645 C7.91741533,16.1219645 7.001019,14.3318653 6.99926583,12.5000442 L8.49946599,12.4999596 C8.50071691,13.8322185 9.16718914,15.1341423 10.3803229,15.8921924 C12.2537791,17.0628577 14.7215271,16.4931332 15.8921924,14.6196771 C17.0628577,12.7462209 16.4931332,10.2784729 14.6196771,9.10780762 C13.3021571,8.28452975 11.6907184,8.32199571 10.4431985,9.06833174 L12.9051998,9.86962301 L12.4416743,11.2962078 L7.92415586,9.82837706 L9.39198658,5.31085861 Z"/></svg>