<svg width="35" height="35" viewBox="0 0 35 35" xmlns="http://www.w3.org/2000/svg"><path d="M1.91849032 10.1818182 0 10.1818182 3.59881037 0 5.79920543 0 9.39793812 10.1818182 7.47952548 10.1818182 4.73878063 2.05256792 4.65923517 2.05256792 1.91849032 10.1818182ZM2.01287287 6.18978604 7.37038352 6.18978604 7.37038352 7.64436479 2.01287287 7.64436479 2.01287287 6.18978604ZM12.8781003 10.338734C12.3930077 10.338734 11.9572426 10.251045 11.5708049 10.0756669 11.1843673 9.9002889 10.8788216 9.64175323 10.6541679 9.30005993 10.4295141 8.95836663 10.3171872 8.53710198 10.3171872 8.03626598 10.3171872 7.60617158 10.3978461 7.25010727 10.5591639 6.96807306 10.7204816 6.68603886 10.9391799 6.46099669 11.2152585 6.29294656 11.4913372 6.12489643 11.8023723 5.9979396 12.148364 5.91207608 12.4943556 5.82621257 12.8520253 5.76313551 13.2213731 5.7228449 13.6718718 5.67302542 14.0366105 5.6293039 14.3155892 5.59168035 14.594568 5.5540568 14.7977947 5.49498032 14.9252694 5.41445091 15.0527441 5.33392149 15.1164814 5.20717182 15.1164814 5.03420188L15.1164814 5.00180886C15.1164814 4.6192553 15.0042452 4.3227724 14.7797727 4.11236017 14.5553002 3.90194795 14.2287676 3.79674183 13.8001751 3.79674183 13.350505 3.79674183 12.995114 3.8951379 12.7340019 4.09193004 12.4728898 4.28872218 12.295492 4.51834754 12.2018086 4.78080611L10.5653784 4.53028453C10.7029257 4.06626938 10.9253526 3.67963756 11.2326591 3.37038907 11.5399655 3.06114058 11.9122134 2.8297674 12.3494027 2.67626953 12.786592 2.52277166 13.2667389 2.44602273 13.7898435 2.44602273 14.1468141 2.44602273 14.506387 2.48790579 14.8685622 2.57167192 15.2307374 2.65543805 15.5627206 2.79570423 15.8645117 2.99247048 16.1663028 3.18923673 16.4095741 3.45752138 16.5943257 3.79732444 16.7790772 4.1371275 16.871453 4.56366152 16.871453 5.07692649L16.871453 10.1818182 15.1827434 10.1818182 15.1827434 9.13296786 15.1230843 9.13296786C15.0165576 9.34286222 14.8646652 9.53982267 14.6674069 9.72384921 14.4701487 9.90787575 14.2232264 10.0563632 13.9266399 10.1693115 13.6300534 10.2822599 13.2805402 10.338734 12.8781003 10.338734ZM13.3222032 9.03439054C13.6917063 9.03439054 14.0112217 8.96103368 14.2807492 8.81431996 14.5502768 8.66760624 14.7581773 8.47339052 14.9044509 8.23167281 15.0507244 7.98995509 15.1238611 7.72595585 15.1238611 7.43967507L15.1238611 6.52785423C15.0655485 6.57643081 14.9686543 6.62076083 14.8331784 6.66084428 14.6977026 6.70092773 14.5447355 6.73622085 14.3742773 6.76672363 14.203819 6.79722641 14.0356912 6.82398756 13.8698939 6.84700706 13.7040965 6.87002656 13.5613057 6.8898223 13.4415214 6.90639426 13.1709322 6.94373298 12.9278162 7.00385816 12.7121735 7.0867698 12.4965307 7.16968143 12.3261372 7.28587942 12.2009929 7.43536377 12.0758487 7.58484811 12.0132765 7.77805398 12.0132765 8.01498136 12.0132765 8.35025302 12.1363752 8.60397246 12.3825725 8.77613969 12.6287698 8.94830692 12.9419801 9.03439054 13.3222032 9.03439054Z" transform="translate(9.064 12.33)" fill="#000000"/></svg>