<svg xmlns="http://www.w3.org/2000/svg" width="25" height="25" viewBox="0 0 25 25"><path fill="#328173" fill-rule="evenodd" d="M12.5,15.75 C14.501581,15.75 16.2834037,16.6908971 17.4273019,18.1545249 C16.1090481,19.304003 14.3858035,20 12.5,20 C10.6141965,20 8.89095186,19.304003 7.57312615,18.154869 C8.71659627,16.6908971 10.498419,15.75 12.5,15.75 Z M12.5,5 C16.6421356,5 20,8.35786438 20,12.5 C20,14.2110607 19.4270123,15.7882928 18.4624476,17.0502858 C17.5477795,15.9483055 16.332374,15.1045378 14.942448,14.6441133 C15.4451711,14.0718952 15.75,13.3215459 15.75,12.5 C15.75,10.7050746 14.2949254,9.25 12.5,9.25 C10.7050746,9.25 9.25,10.7050746 9.25,12.5 C9.25,13.3215459 9.55482885,14.0718952 10.0582058,14.6425065 C8.66798506,15.1036554 7.45241767,15.9478209 6.53657246,17.0499342 C5.57298774,15.7882928 5,14.2110607 5,12.5 C5,8.35786438 8.35786438,5 12.5,5 Z M12.5,10.75 C13.4664983,10.75 14.25,11.5335017 14.25,12.5 C14.25,13.4664983 13.4664983,14.25 12.5,14.25 C11.5335017,14.25 10.75,13.4664983 10.75,12.5 C10.75,11.5335017 11.5335017,10.75 12.5,10.75 Z"/></svg>