<svg xmlns="http://www.w3.org/2000/svg" width="25" height="25" viewBox="0 0 25 25"><path fill="#328173" d="M12.5,5 C16.6421356,5 20,8.35786438 20,12.5 C20,14.362932 19.320783,16.0672245 18.1964795,17.3787467 L17.9197992,17.6841922 L17.6807919,17.9230526 C16.3347046,19.2095777 14.5096588,20 12.5,20 C10.7418617,20 9.1250174,19.3950485 7.84626754,18.3819458 L7.54798778,18.1328504 L7.29338186,17.8982919 L7.00619461,17.6057518 L6.73113587,17.2930277 L6.64255064,17.1844859 L6.52830463,17.038161 C5.56932649,15.7781972 5,14.2055853 5,12.5 C5,8.35786438 8.35786438,5 12.5,5 Z M12.5,15.75 C11.0405912,15.75 9.69801201,16.2502069 8.63435392,17.0885292 C9.67831976,17.9693368 11.0271884,18.5 12.5,18.5 C13.9728116,18.5 15.3216802,17.9693368 16.3658349,17.0887814 C15.3013827,16.2499814 13.9590798,15.75 12.5,15.75 Z M12.5,6.5 C9.1862915,6.5 6.5,9.1862915 6.5,12.5 C6.5,13.7994586 6.9130945,15.0024338 7.61512563,15.9847677 C8.33349576,15.3989454 9.15920384,14.9407586 10.0578643,14.6426203 C9.55482885,14.0718952 9.25,13.3215459 9.25,12.5 C9.25,10.7050746 10.7050746,9.25 12.5,9.25 C14.2949254,9.25 15.75,10.7050746 15.75,12.5 C15.75,13.3215459 15.4451711,14.0718952 14.942448,14.6441133 C15.840749,14.9407417 16.6664018,15.3989086 17.3852915,15.9833324 C18.0869055,15.0024338 18.5,13.7994586 18.5,12.5 C18.5,9.1862915 15.8137085,6.5 12.5,6.5 Z M12.5,10.75 C11.5335017,10.75 10.75,11.5335017 10.75,12.5 C10.75,13.4664983 11.5335017,14.25 12.5,14.25 C13.4664983,14.25 14.25,13.4664983 14.25,12.5 C14.25,11.5335017 13.4664983,10.75 12.5,10.75 Z"/></svg>