<svg width="25" height="25" viewBox="0 0 25 25" xmlns="http://www.w3.org/2000/svg"><path d="M19.2928932,4.29289322 L20.7071068,5.70710678 L5.70710678,20.7071068 L4.29289322,19.2928932 L19.2928932,4.29289322 Z M20,14 L20,20 L14,20 L14,18 L18,18 L18,14 L20,14 Z M10.536233,17.999233 L11,18 L11,20 L8.53623305,19.999233 L10.536233,17.999233 Z M7,14 L6.99923305,14.466233 L4.99923305,16.466233 L5,14 L7,14 Z M11,5 L11,7 L7,7 L7,11 L5,11 L5,5 L11,5 Z M19.999233,8.53623305 L20,11 L18,11 L17.999233,10.536233 L19.999233,8.53623305 Z M16.466233,4.99923305 L14.466233,6.99923305 L14,7 L14,5 L16.466233,4.99923305 Z" fill="#000000" fill-rule="evenodd"/></svg>