<svg width="25" height="25" viewBox="0 0 25 25" xmlns="http://www.w3.org/2000/svg"><path d="M13.0833333,3 C13.4870342,3 13.8511407,3.24273768 14.0064103,3.61538462 L14.8507427,5.63959717 C15.1391095,5.73838338 15.4192746,5.85483947 15.689946,5.98767334 L17.7171789,5.15243531 C18.0904722,4.99872629 18.5195759,5.08454701 18.8050355,5.37000662 L19.6299934,6.19496453 C19.915453,6.48042414 20.0012737,6.90952779 19.8475647,7.28282112 L19.0123267,9.31005398 C19.1453143,9.58103863 19.2618861,9.861539 19.3607457,10.1502585 L21.3846154,10.9935897 C21.7572623,11.1488593 22,11.5129658 22,11.9166667 L22,13.0833333 C22,13.4870342 21.7572623,13.8511407 21.3846154,14.0064103 L19.3604028,14.8507427 C19.2616166,15.1391095 19.1451605,15.4192746 19.0123267,15.689946 L19.8475647,17.7171789 C20.0012737,18.0904722 19.915453,18.5195759 19.6299934,18.8050355 L18.8050355,19.6299934 C18.5195759,19.915453 18.0904722,20.0012737 17.7171789,19.8475647 L15.689946,19.0123267 C15.4192746,19.1451605 15.1391095,19.2616166 14.8507427,19.3604028 L14.0064103,21.3846154 C13.8511407,21.7572623 13.4870342,22 13.0833333,22 L11.9166667,22 C11.5129658,22 11.1488593,21.7572623 10.9935897,21.3846154 L10.1502585,19.3607457 C9.861539,19.2618861 9.58103863,19.1453143 9.31005398,19.0123267 L7.28282112,19.8475647 C6.90952779,20.0012737 6.48042414,19.915453 6.19496453,19.6299934 L5.37000662,18.8050355 C5.08454701,18.5195759 4.99872629,18.0904722 5.15243531,17.7171789 L5.98767334,15.689946 C5.85483947,15.4192746 5.73838338,15.1391095 5.63959717,14.8507427 L3.61538462,14.0064103 C3.24273768,13.8511407 3,13.4870342 3,13.0833333 L3,11.9166667 C3,11.5129658 3.24273768,11.1488593 3.61538462,10.9935897 L5.63925427,10.1502585 C5.73811386,9.861539 5.85468575,9.58103863 5.98767334,9.31005398 L5.15243531,7.28282112 C4.99872629,6.90952779 5.08454701,6.48042414 5.37000662,6.19496453 L6.19496453,5.37000662 C6.48042414,5.08454701 6.90952779,4.99872629 7.28282112,5.15243531 L9.31005398,5.98767334 C9.58103863,5.85468575 9.861539,5.73811386 10.1502585,5.63925427 L10.9935897,3.61538462 C11.1488593,3.24273768 11.5129658,3 11.9166667,3 L13.0833333,3 Z M12.5,9.5 C10.8431458,9.5 9.5,10.8431458 9.5,12.5 C9.5,14.1568542 10.8431458,15.5 12.5,15.5 C14.1568542,15.5 15.5,14.1568542 15.5,12.5 C15.5,10.8431458 14.1568542,9.5 12.5,9.5 Z" fill="#000000"/></svg>