<svg width="25" height="25" viewBox="0 0 25 25" xmlns="http://www.w3.org/2000/svg"><path d="M5,4 L12,4 C13.1045695,4 14,4.8954305 14,6 L14,9 C14,10.1045695 13.1045695,11 12,11 L5,11 C3.8954305,11 3,10.1045695 3,9 L3,6 C3,4.8954305 3.8954305,4 5,4 Z M22,14 L22,21 L19,21 C17.8954305,21 17,20.1045695 17,19 L17,16 C17,14.8954305 17.8954305,14 19,14 L22,14 Z M22,15 L19,15 C18.4871642,15 18.0644928,15.3860402 18.0067277,15.8833789 L18,16 L18,19 C18,19.5522847 18.4477153,20 19,20 L22,20 L22,15 Z M9,12.5 L9,15.5 C9,16.3284271 9.67157288,17 10.5,17 L12.794,17 L11.6464466,15.8535534 L12.3535534,15.1464466 L14.7071068,17.5 L12.3535534,19.8535534 L11.6464466,19.1464466 L12.792,18 L10.5,18 C9.11928813,18 8,16.8807119 8,15.5 L8,12.5 L9,12.5 Z" fill="#000000" fill-rule="evenodd"/></svg>