<svg width="25" height="25" viewBox="0 0 25 25" xmlns="http://www.w3.org/2000/svg"><path d="M20,11 C21.1045695,11 22,11.8954305 22,13 L22,19 C22,20.1045695 21.1045695,21 20,21 L11,21 C9.8954305,21 9,20.1045695 9,19 L9,13 C9,11.8954305 9.8954305,11 11,11 L20,11 Z M14,14 L14,18 L17.5,16 L14,14 Z M14,5 C15.1045695,5 16,5.8954305 16,7 L16,10 L15,10 L15,7 C15,6.44771525 14.5522847,6 14,6 L5,6 C4.44771525,6 4,6.44771525 4,7 L4,13 C4,13.5522847 4.44771525,14 5,14 L8,14 L8,15 L5,15 C3.8954305,15 3,14.1045695 3,13 L3,7 C3,5.8954305 3.8954305,5 5,5 L14,5 Z M8,11 L8,13 L7,13 L7,11 L8,11 Z M10,8 L10,10 L9,10 L9,8 L10,8 Z M7,8 L7,9 L5,9 L5,8 L7,8 Z M14,7 L14,8 L12,8 L12,7 L14,7 Z" fill="#000000"/></svg>