<svg width="25" height="25" viewBox="0 0 25 25" xmlns="http://www.w3.org/2000/svg"><path d="M13.9142136,5.41421356 L19.5857864,11.0857864 C20.366835,11.866835 20.366835,13.133165 19.5857864,13.9142136 L13.9142136,19.5857864 C13.133165,20.366835 11.866835,20.366835 11.0857864,19.5857864 L5.41421356,13.9142136 C4.63316498,13.133165 4.63316498,11.866835 5.41421356,11.0857864 L11.0857864,5.41421356 C11.866835,4.63316498 13.133165,4.63316498 13.9142136,5.41421356 Z M13,9.5 L12,9.5 L12,12 L9.5,12 L9.5,13 L12,13 L12,15.5 L13,15.5 L13,13 L15.5,13 L15.5,12 L13,12 L13,9.5 Z" fill="#000000" fill-rule="evenodd"/></svg>