<svg width="25" height="25" viewBox="0 0 25 25" xmlns="http://www.w3.org/2000/svg"><path d="M12.5,7 C15.5883147,7 18.8364318,8.59041559 22.2443515,11.7712468 C22.6175494,12.1185552 22.6639962,12.684481 22.3720414,13.0865829 L22.269128,13.2071068 L22.2454953,13.2299748 C18.8364318,16.4095844 15.5883147,18 12.5,18 C9.41168534,18 6.16356816,16.4095844 2.75564845,13.2287532 C2.38245062,12.8814448 2.33600377,12.315519 2.62795857,11.9134171 L2.73087204,11.7928932 L2.75450473,11.7700252 C6.16356816,8.59041559 9.41168534,7 12.5,7 Z M12.5,9.5 L9.5,12.5 L11.5,12.5 L11.5,15 L13.5,15 L13.5,12.5 L15.5,12.5 L12.5,9.5 Z" fill="#000000" fill-rule="evenodd"/></svg>