<svg width="25" height="25" viewBox="0 0 25 25" xmlns="http://www.w3.org/2000/svg"><path d="M10.5,4.5 C13.8137085,4.5 16.5,7.1862915 16.5,10.5 C16.5,11.7954479 16.0894515,12.9950071 15.3913664,13.9756657 L20.2071068,18.7928932 C20.5976311,19.1834175 20.5976311,19.8165825 20.2071068,20.2071068 C19.8165825,20.5976311 19.1834175,20.5976311 18.7928932,20.2071068 L13.9756657,15.3913664 C12.9950071,16.0894515 11.7954479,16.5 10.5,16.5 C7.1862915,16.5 4.5,13.8137085 4.5,10.5 C4.5,7.1862915 7.1862915,4.5 10.5,4.5 Z M10.5,6 C8.01471863,6 6,8.01471863 6,10.5 C6,12.9852814 8.01471863,15 10.5,15 C12.9852814,15 15,12.9852814 15,10.5 C15,8.01471863 12.9852814,6 10.5,6 Z" fill="#000000"/></svg>